<svg xmlns="http://www.w3.org/2000/svg" xmlns:xlink="http://www.w3.org/1999/xlink" viewBox="0 0 243 84.82"><defs><style>.b5a674a5-df5b-47c4-a5bd-bfbca1e5c169{fill:none;}.ef4bd390-8177-449f-9a59-305a9e037142{opacity:0.28;}.a3f28cfa-e77c-4ce9-b466-5ba4b49d09c3{fill:#9fe8ff;}.a3f28cfa-e77c-4ce9-b466-5ba4b49d09c3,.b0864e21-d27a-4bf0-8831-1e03e676fc54,.bacc914e-7322-4e05-a1b8-e1e279621be5{opacity:0.63;}.b0864e21-d27a-4bf0-8831-1e03e676fc54{fill:#f6aaff;}.bacc914e-7322-4e05-a1b8-e1e279621be5{fill:#6aa4ff;}.a15265ea-1de3-4241-bdcb-684afb392f49{clip-path:url(#b69ed8cf-63a0-4fff-952e-e7b684c66add);}.a64500c2-56e2-4adc-9131-b0239e27ad5a{opacity:0.56;}.aa460d36-d5c2-42a6-b99f-fa10cfc9d2ca{fill:#ed4296;}.f7d40d80-e87a-4040-a503-3df807ce3660{fill:#ca3680;}.b148eb48-a692-4fc8-be5f-d2e198b92db0{fill:#15123e;}.f853e749-51ff-4023-bc04-62ffa1145367{fill:#ec1e24;}.a2b53435-6544-4780-9be3-d379911e17a0{opacity:0.07;}.e5007921-69f9-46ec-aa1f-967c46b7cb9f{clip-path:url(#ebb12869-25e9-4c59-8fb1-1338a9c777fd);}.ba24e059-8b23-42de-9545-278e9dad4493{fill:#0d72b9;}.e353aa87-ae16-4ad6-9e2d-086d7f2300ec{fill:#6fcbdc;}.fef58579-472e-4237-8216-b1fa1f3011f4{font-size:72px;font-family:FinalSix-Book, FinalSix;letter-spacing:-0.12em;}.ae2f31b3-7417-432b-a586-70c4c0d9051f{letter-spacing:-0.12em;}.bc815cfa-b0cb-4ab5-b69f-20e1e5be76a3{letter-spacing:-0.11em;}</style><clipPath id="b69ed8cf-63a0-4fff-952e-e7b684c66add"><path class="b5a674a5-df5b-47c4-a5bd-bfbca1e5c169" d="M164,8.5h63.67A11.33,11.33,0,0,1,239,19.83V62.16A11.33,11.33,0,0,1,227.67,73.5H164a0,0,0,0,1,0,0V8.5A0,0,0,0,1,164,8.5Z"/></clipPath><clipPath id="ebb12869-25e9-4c59-8fb1-1338a9c777fd"><path class="b5a674a5-df5b-47c4-a5bd-bfbca1e5c169" d="M35.17,8.5H99a0,0,0,0,1,0,0v65a0,0,0,0,1,0,0H35.17A11.17,11.17,0,0,1,24,62.33V19.66A11.17,11.17,0,0,1,35.17,8.5Z"/></clipPath></defs><g id="eec9fad8-d99e-4d8a-9916-c3ed1fa831d5" data-name="Layer 4" class="ef4bd390-8177-449f-9a59-305a9e037142"><path id="e9b19588-87e4-4963-91d5-5e7fba60302d" data-name="path2818" d="M132.49,63.48c-.35-.14-.51-.61-.85-.69a7.83,7.83,0,0,1-2.89-.42,3.24,3.24,0,0,1-1.9-1.23c-.47-.34-.51-1.59-1.18-1.28a3.93,3.93,0,0,1-2.86.47,14.84,14.84,0,0,1-3.73-1.49c-1.18-.74-2.23-1.67-3.42-2.39-.77-.13-.53,1-.76,1.49-.24.69-.83,1.19-1,1.92a2,2,0,0,1-1.65.59c-.65-.17-1.12.55-1.75.69a4.93,4.93,0,0,1-3,.32c-.75-.24-1.29-.85-2-1.15A8.58,8.58,0,0,1,104,57.62c-.29.27-.65.7-1.07.41s0-1.08-.54-1.38a14.65,14.65,0,0,1-1-1.44c-.41-.43-.21-1.07-.26-1.61,0-.31,0-.64,0-.93a15.81,15.81,0,0,1,1.6-2c.35-.61.61-1.26.9-1.9s.68-1.58,1.49-1.85,1.68.79,1.91,1.6a4.06,4.06,0,0,0,.56,1,24.68,24.68,0,0,1,1.72-4.89,8.25,8.25,0,0,1,.9-2.09,8.67,8.67,0,0,1,2.08-2.15c1.45-1.33,3.39-1.83,5.18-2.5a17.29,17.29,0,0,1,2.2-.65c.33,0,.57.4.89.14,2.53-1,5.08-1.92,7.54-3.09,1.21-.68,2.32-1.55,3.56-2.16.57-.38,1.71-.13,1.69-1.06a1.61,1.61,0,0,0-.48-1.64,9.06,9.06,0,0,1-1.07-3,11.51,11.51,0,0,1,.54-5c.3-.62.07-1.35.54-1.9A4.7,4.7,0,0,1,135,17.3c1.23-.37,2.15-1.43,3.43-1.7a10.39,10.39,0,0,1,6.65,0,11.59,11.59,0,0,0,2.38.95,4.66,4.66,0,0,1,1.76.83c.7.59,1.49,1.07,2.14,1.7A15.33,15.33,0,0,1,153,21.5a4.29,4.29,0,0,1,.79,1.85,6.2,6.2,0,0,1-.26,2.46,10.63,10.63,0,0,0-.45,2.07c.25.39-.68,1,.08,1.2.36.44-.82.29-.57.9-.44.65.19,1.21.52,1.72.56.64,0,1.17-.64,1.39-.32.58-.49,1.39-1.35,1.44-.62.15-1.59.25-1.19,1.15.32.34.67,1.21,0,1.3-.43-.08-1-.07-1.12.45-.42.7.25,1.25.55,1.83.61,1.07.66,2.35,1.25,3.44a33,33,0,0,0,2.82,5.06c.61.73,1.47,1.25,1.87,2.15a26.84,26.84,0,0,1,1.62,4.36,11.67,11.67,0,0,0,1.56,3.26c.49.61,1.34.53,2,.8s1.93,1.33,1.39,1.63c-.24.14-.45-.16-.59,0-.32.29.17.24-.09.46s-1.47,0-2.22.13c-1,0-1.87-.47-2.84-.49-.48,0-1-.11-1.45-.18-.37.47-.73,1-1.39,1.09-.42.24-1.22-.2-.62-.58.58-.61-.2-1.23-.14-1.89-.09-.3.36-.68,0-.88-.95-.82-1.62-1.9-2.51-2.78a9,9,0,0,1-1.63-2.61c-.33-.51-1-.73-1.28-1.28-1.05-1.71-1-3.84-2-5.57-.23-.37-.42-1.18-.89-.56-1.54,1-2.61,2.66-4.3,3.49A12.91,12.91,0,0,0,137.14,50a29.3,29.3,0,0,1-3.39,2.6,13.06,13.06,0,0,1-2.7,1.06c.07,1.06.3,2.11.47,3.16L132.6,59a22.33,22.33,0,0,1,4.67.56,2.58,2.58,0,0,1,1.63,1.26c.25.54.71,1.48-.21,1.55-.51.76-1.19-.26-1.62-.59-.56-.07.42,1-.35,1.12s-1.13-.7-1.8-.63a9,9,0,0,0-1.54.35c0,.38.2,1-.3,1.09a.91.91,0,0,1-.59-.21Z"/></g><g id="b744e3bb-d265-4db9-8f57-c89c07c92ef7" data-name="Layer 1"><rect class="a3f28cfa-e77c-4ce9-b466-5ba4b49d09c3" x="94" y="8.5" width="75" height="65"/><path class="b0864e21-d27a-4bf0-8831-1e03e676fc54" d="M164,8.5h63.67A11.33,11.33,0,0,1,239,19.83V62.16A11.33,11.33,0,0,1,227.67,73.5H164a0,0,0,0,1,0,0V8.5A0,0,0,0,1,164,8.5Z"/><path class="bacc914e-7322-4e05-a1b8-e1e279621be5" d="M34.17,8.5H98a0,0,0,0,1,0,0v65a0,0,0,0,1,0,0H34.17A11.17,11.17,0,0,1,23,62.33V19.66A11.17,11.17,0,0,1,34.17,8.5Z"/><g class="ef4bd390-8177-449f-9a59-305a9e037142"><g class="a15265ea-1de3-4241-bdcb-684afb392f49"><g class="a64500c2-56e2-4adc-9131-b0239e27ad5a"><path class="aa460d36-d5c2-42a6-b99f-fa10cfc9d2ca" d="M207.05,48.35h-.18c-10.82,0-13.69-2.62-16.84-4.16-1-.49-3-2.49-5.45-5.22a7.78,7.78,0,0,0,1.55,1.16c3.14,1.53,6,4.12,16.72,4.16l-.42-17.92A13.85,13.85,0,0,1,194,23.54c-1.57-1.26-4.31-6.41-4.71-6.62h.1a1,1,0,0,1-.34-.49,3.79,3.79,0,0,1-1.63-.91,6.36,6.36,0,0,0,3.23-.32c1.41-.65,2.62-3,4.63-3.89s3.83-1.83,7-.18l-.09-3.8H164.47a61.76,61.76,0,0,0,1.79,7.53c1.42,3.8,6.09,10.49,10.58,16.06-.18,7.7-.81,25.54-2.86,30.9s-6.21,9.76-10.72,13.67h48.08V48.4s-2.7.19-4.41.42Z"/><path class="aa460d36-d5c2-42a6-b99f-fa10cfc9d2ca" d="M232.36,61.75c-1.5-3.94-2.24-14.67-2.59-23.08h0c.35,8.41,1.08,19.14,2.59,23.08,2,5.32,6.17,9.7,10.64,13.58h0C238.53,71.45,234.39,67.07,232.36,61.75Z"/><path class="f7d40d80-e87a-4040-a503-3df807ce3660" d="M232.21,61.91C230.7,58,230,47.24,229.61,38.83c-2.6,3-4.84,5.22-5.91,5.74-2.67,1.3-5.14,3.36-12.36,4V75.49h31.51C238.38,71.61,234.24,67.23,232.21,61.91Z"/><path class="b148eb48-a692-4fc8-be5f-d2e198b92db0" d="M241.57,7.33c-.18.88-.35,1.74-.51,2.54-.1.45-.19.89-.28,1.31-.13.6-.26,1.15-.38,1.66l-.26,1c-.14.52-.28,1-.41,1.32s-.36.89-.6,1.39c-3.59,7.45-15.51,22-18.45,23.41-2.34,1.15-4.53,2.89-10,3.69l-1.45.18a51.67,51.67,0,0,1-5.17.24s-.9,0-.9.48h-.25l.13-.48h-.12c-10.77,0-13.64-2.69-16.8-4.25a7.94,7.94,0,0,1-1.55-1.2C187,41.41,189,43.47,190,44c3.16,1.58,6,4.24,16.92,4.26,1.71,0,3.22-.07,4.57-.19,7.22-.64,9.68-2.74,12.35-4.07,1.07-.52,3.31-2.8,5.91-5.85h0c.36,8.57,1.09,19.52,2.6,23.54,1.93,5.15,5.75,9.43,10,13.23V7.33Z"/><polygon class="b148eb48-a692-4fc8-be5f-d2e198b92db0" points="207.05 48.35 206.93 48.82 206.81 48.35 207.05 48.35"/><path class="aa460d36-d5c2-42a6-b99f-fa10cfc9d2ca" d="M240,12.78c-.08.36-.17.7-.25,1C239.79,13.48,239.88,13.14,240,12.78Z"/><path class="aa460d36-d5c2-42a6-b99f-fa10cfc9d2ca" d="M240.64,9.76c-.1.46-.2.9-.29,1.33C240.44,10.66,240.54,10.22,240.64,9.76Z"/><path class="aa460d36-d5c2-42a6-b99f-fa10cfc9d2ca" d="M203,44.51c2,0,3.74-.1,5.25-.25-1.51.15-3.25.25-5.25.25Z"/><polygon class="aa460d36-d5c2-42a6-b99f-fa10cfc9d2ca" points="203.13 44.06 203.01 44.54 202.88 44.06 203.13 44.06"/><path class="f7d40d80-e87a-4040-a503-3df807ce3660" d="M213.88,16.92l.34-.06-.47.06Z"/><path class="f7d40d80-e87a-4040-a503-3df807ce3660" d="M202,7.33l.08,3.8c.18.09.35.18.53.29,3.53-2.05,5.55-1,7.57-.11s3.22,3.24,4.63,3.89a6.36,6.36,0,0,0,3.23.32,4.23,4.23,0,0,1-2,1l.66-.15a1,1,0,0,1-.35.52h0c-.41.22-3.23,5.51-4.84,6.8a14.31,14.31,0,0,1-9,2.91l.43,18.42v-.51H203c2,0,3.77-.1,5.3-.26.52-.05,1-.11,1.49-.18,5.64-.82,7.88-2.6,10.29-3.78,3-1.46,15.24-16.37,18.92-24,.24-.51.45-1,.62-1.43s.27-.81.41-1.35c.09-.31.18-.65.26-1,.13-.53.26-1.1.4-1.71.09-.43.19-.88.28-1.34.14-.68.29-1.4.43-2.14Z"/><path class="f853e749-51ff-4023-bc04-62ffa1145367" d="M196.17,17.55c2,0,4.85-.5,5.21-.5s.75.05,1.08.09a2.62,2.62,0,0,0,.56,0c.32,0,.84-.09,1.08-.09s3.26.5,5.21.5a30,30,0,0,0,4.57-.63h-.13l.47-.06,1.49-.31a4.07,4.07,0,0,0,2-1,6.12,6.12,0,0,1-3.15-.31c-1.38-.64-2.57-3-4.54-3.8s-3.94-1.9-7.39.1l-.52-.28c-3.13-1.61-5-.63-6.88.18s-3.15,3.16-4.53,3.8a6.16,6.16,0,0,1-3.16.31,3.66,3.66,0,0,0,1.6.89v0A52.16,52.16,0,0,0,196.17,17.55Z"/><path class="f853e749-51ff-4023-bc04-62ffa1145367" d="M211.29,23.57c1.58-1.26,4.34-6.43,4.74-6.65h0l-.07.06a24.45,24.45,0,0,1-5.92,1.4c-1.18-.06-3.67-.19-4.56-.19a8.52,8.52,0,0,0-2.27.58,1.27,1.27,0,0,1-.9,0,8.52,8.52,0,0,0-2.27-.58c-.89,0-3.38.13-4.56.19a24.33,24.33,0,0,1-5.92-1.4l-.08-.06h-.25c.39.22,3.16,5.39,4.73,6.65a14.62,14.62,0,0,0,17.35,0Z"/><path class="b148eb48-a692-4fc8-be5f-d2e198b92db0" d="M195.46,18.46c1.18-.06,3.67-.19,4.56-.19a8.55,8.55,0,0,1,2.27.59,1.27,1.27,0,0,0,.9,0,8.55,8.55,0,0,1,2.27-.59c.89,0,3.38.13,4.56.19a24.48,24.48,0,0,0,5.92-1.39L216,17a1,1,0,0,0,.34-.51l-.64.14-1.49.3-.34.07a31.33,31.33,0,0,1-4.57.63c-1.95,0-4.85-.51-5.21-.51s-.76.06-1.08.1a2.62,2.62,0,0,1-.56,0c-.33,0-.85-.1-1.08-.1s-3.26.51-5.21.51a52.16,52.16,0,0,1-7-1.14v0a1,1,0,0,0,.33.49l.08.06A24.37,24.37,0,0,0,195.46,18.46Z"/></g></g></g><g class="a2b53435-6544-4780-9be3-d379911e17a0"><g class="e5007921-69f9-46ec-aa1f-967c46b7cb9f"><path class="ba24e059-8b23-42de-9545-278e9dad4493" d="M7.3,54.42C6,55,4.72,55.48,3.61,56l-.87.42c-.5.25-1,.5-1.37.74L0,58V72.5H12.87c-2.9-.18-5.21-.37-5.21-.37Z"/><path class="ba24e059-8b23-42de-9545-278e9dad4493" d="M122.26,56c-1.24-.58-2.67-1.17-4.17-1.76l-.36,17.93s-2.32.19-5.21.37H126V58l-1.43-.85C123.93,56.77,123.14,56.37,122.26,56Z"/><path class="ba24e059-8b23-42de-9545-278e9dad4493" d="M101.18,72.5c-.18-.1-.2-.22,0-.37,1.9-1.52,6.94-16.54,7.32-19.44.13-1,.14-1.61.16-2l-1.43-.57c-.6-.24-1.09-.46-1.45-.64A61.46,61.46,0,0,1,99,45.21c-.27-.19-.52-.39-.76-.57a6.78,6.78,0,0,1-1.56-1.48,12.89,12.89,0,0,1-.34-2.45c-.18-2.07-.37-5.16-.55-8.17C89.86,42.32,75.55,50.18,63,50.18c-11.83,0-26.43-6.29-33.22-15.92-.17,2.89-.35,5.66-.53,7.33A7.11,7.11,0,0,1,29,43.16a10.92,10.92,0,0,1-2.53,2.2q-.59.44-1.23.87c-1.31.89-2.75,1.81-4,2.52-.5.3-1,.55-1.38.77s-1.35.62-2.37,1l-1.06.41c0,.37,0,.92.15,1.75C17,55.59,22,70.61,23.92,72.13c.19.15.17.27,0,.37Z"/><path class="ba24e059-8b23-42de-9545-278e9dad4493" d="M42.54,27.07c1.12-4,2.46-8.78,2.46-9l.64,10.63v.2h0a.86.86,0,0,0,.11.24c1.89,2.44,14.39,17.83,12,4.26,0,0,0,0,0-.05h0c-1-2.52-1.9-6.13-2-6.59-.21-.66,1.07-.19,1.92.57s4,1,4.09,1h1c.09,0,3.22-.24,4.08-1s2.14-1.23,1.93-.57c-.15.47-1.16,4.27-2.15,6.77h0C64,47.09,76.55,32.28,79,29.2a1,1,0,0,0,.21-.52h0v-.12h0L79.82,18c0,.25,1.29,4.9,2.4,8.84A54.47,54.47,0,0,0,99.29,9.5H25.76A51,51,0,0,0,42.54,27.07Zm25.65-1.85a33.17,33.17,0,0,1-5.19.4v-.37l-.28.43h-.16v-.06a31.23,31.23,0,0,1-5.09-.4c-1.76-.4-4.91-1.83-6-3.19A34.23,34.23,0,0,0,46.7,18.2,13.22,13.22,0,0,1,48.84,18c.95,0,6.49-.24,7.68-.24a29.17,29.17,0,0,1,4.08.76,9.34,9.34,0,0,0,4.24,0,32.25,32.25,0,0,1,4.29-.78c1.2,0,6.74.24,7.69.24A13.22,13.22,0,0,1,79,18.2,34.76,34.76,0,0,0,74.23,22C73.1,23.39,70,24.82,68.19,25.22ZM49.72,15.54c2.33-1.28,5.57-4.85,9-4.95,1,0,3.86,1.52,4.11,1.52s3.11-1.52,4.12-1.52c3.33,0,6.61,3.67,8.94,4.95a30.5,30.5,0,0,0,3.9,1.83H75.21c-1.64,0-5-.64-6.23-.32a61.15,61.15,0,0,1-6.18.56,61.59,61.59,0,0,1-6.21-.56c-1.26-.32-4.6.32-6.24.32H45.82A30.5,30.5,0,0,0,49.72,15.54Z"/><path class="b148eb48-a692-4fc8-be5f-d2e198b92db0" d="M56.59,17.05a61.59,61.59,0,0,0,6.21.56A61.15,61.15,0,0,0,69,17.05c1.25-.32,4.59.32,6.23.32h4.53a30.5,30.5,0,0,1-3.9-1.83c-2.33-1.28-5.61-4.95-8.94-4.95-1,0-3.87,1.52-4.12,1.52s-3.11-1.55-4.11-1.52c-3.38.1-6.62,3.67-9,4.95a30.5,30.5,0,0,1-3.9,1.83h4.53C52,17.37,55.33,16.73,56.59,17.05Z"/><path class="e353aa87-ae16-4ad6-9e2d-086d7f2300ec" d="M74.23,22A34.76,34.76,0,0,1,79,18.2,13.22,13.22,0,0,0,76.82,18c-.95,0-6.49-.24-7.69-.24a32.25,32.25,0,0,0-4.29.78,9.34,9.34,0,0,1-4.24,0,29.17,29.17,0,0,0-4.08-.76c-1.19,0-6.73.24-7.68.24a13.22,13.22,0,0,0-2.14.24A34.23,34.23,0,0,1,51.42,22c1.14,1.36,4.29,2.79,6,3.19a31.23,31.23,0,0,0,5.09.4v-.37l.16.43H63v-.06a33.17,33.17,0,0,0,5.19-.4C70,24.82,73.1,23.39,74.23,22Z"/><path class="b148eb48-a692-4fc8-be5f-d2e198b92db0" d="M25.83,28.22c.31.74.63,1.47,1,2.17a32.49,32.49,0,0,0,2.49,4.08C36.14,44.18,51.07,50.18,63,50.18c12.65,0,26.88-7.58,32.84-17.44l.6-1c.25-.46.5-.9.71-1.33A51.63,51.63,0,0,0,101,18.92c.77-3.36,1.29-6.65,1.64-9.42H99.29A54.47,54.47,0,0,1,82.22,26.88c-1.11-3.94-2.4-8.59-2.4-8.84l-.63,10.52h0v.12h0a1,1,0,0,1-.21.52C76.55,32.28,64,47.09,66.53,33.52h0c1-2.5,2-6.3,2.15-6.77.21-.66-1.07-.19-1.93.57s-4,1-4.08,1h-1c-.09,0-3.23-.24-4.09-1s-2.13-1.23-1.92-.57c.14.46,1.09,4.07,2,6.59h0s0,0,0,.05c2.41,13.57-10.09-1.82-12-4.26a.86.86,0,0,1-.11-.24h0v-.2L45,18c0,.25-1.34,5.05-2.46,9A51,51,0,0,1,25.76,9.5H22.1a78.81,78.81,0,0,0,1.38,10.69A47.36,47.36,0,0,0,25.83,28.22Z"/><path class="b148eb48-a692-4fc8-be5f-d2e198b92db0" d="M23.92,72.13C22,70.61,17,55.59,16.6,52.69c-.11-.83-.13-1.38-.15-1.75,0-.92,0-.63-1.11-.27l-2.7.91-.61.21L7.24,53.41l-.11,0,0,1,.36,17.71s2.31.19,5.21.37H23.91C24.09,72.4,24.11,72.28,23.92,72.13Z"/><path class="b148eb48-a692-4fc8-be5f-d2e198b92db0" d="M117.94,54.2l0-.75-4-1.35L110.66,51l-.9-.3c-1-.33-1.07-.6-1.11.06,0,.35,0,1-.16,2-.38,2.9-5.42,17.92-7.32,19.44-.19.15-.17.27,0,.37h11.19c2.9-.18,5.21-.37,5.21-.37Z"/></g></g></g><g id="ad620360-161f-4d26-98a3-1ce75f49e027" data-name="Layer 2"><text class="fef58579-472e-4237-8216-b1fa1f3011f4" transform="translate(29 62.64)">m<tspan class="ae2f31b3-7417-432b-a586-70c4c0d9051f" x="67.54" y="0">w</tspan><tspan class="bc815cfa-b0cb-4ab5-b69f-20e1e5be76a3" x="130.03" y="0">m</tspan></text></g></svg>